<svg width="760" height="761" viewBox="0 0 760 761" fill="none" xmlns="http://www.w3.org/2000/svg">
<circle cx="380.046" cy="380.832" r="379.841" fill="white"/>
<path d="M486.476 256.929C517.035 256.929 541.241 266.006 559.093 284.161C577.247 302.012 586.324 328.941 586.324 364.947V504.735H515.523V375.84C515.523 356.475 511.438 342.103 503.268 332.723C495.402 323.041 484.055 318.2 469.229 318.2C452.588 318.2 439.426 323.646 429.744 334.539C420.061 345.129 415.22 361.014 415.22 382.194V504.735H344.419V375.84C344.419 337.413 328.988 318.2 298.125 318.2C281.787 318.2 268.776 323.646 259.094 334.539C249.411 345.129 244.57 361.014 244.57 382.194V504.735H173.769V260.56H241.393V288.699C250.47 278.412 261.514 270.545 274.525 265.099C287.838 259.652 302.361 256.929 318.095 256.929C335.342 256.929 350.924 260.409 364.842 267.368C378.761 274.024 389.956 283.858 398.428 296.869C408.412 284.161 420.969 274.327 436.098 267.368C451.529 260.409 468.322 256.929 486.476 256.929Z" fill="url(#paint0_linear)"/>
<defs>
<linearGradient id="paint0_linear" x1="173.769" y1="256.929" x2="586.324" y2="504.735" gradientUnits="userSpaceOnUse">
<stop stop-color="#4A90E2"/>
<stop offset="1" stop-color="#4ADEDE"/>
</linearGradient>
</defs>
</svg>
