<svg width="239" height="238" viewBox="0 0 239 238" fill="none" xmlns="http://www.w3.org/2000/svg">
<circle cx="119.59" cy="119.047" r="118.676" fill="#3A3A3C"/>
<path fill-rule="evenodd" clip-rule="evenodd" d="M181.141 79.6092V64.5C177.129 68.5973 173.501 72.2677 169.873 75.9382L169.873 75.9386C156.087 89.7247 142.3 103.511 128.514 117.254C127.447 118.279 127.063 118.876 128.429 120.029C130.101 121.451 131.624 123.022 133.148 124.593L133.148 124.593C133.452 124.907 133.757 125.221 134.063 125.534C134.917 126.431 135.429 126.559 136.41 125.577C151.008 110.895 165.647 96.255 180.287 81.6579C180.885 81.0604 181.141 80.4629 181.141 79.6092ZM181.141 110.169V94.8038C168.294 107.736 155.831 120.242 143.325 132.705C142.429 133.559 142.642 133.985 143.41 134.711C145.459 136.632 147.508 138.638 149.471 140.686C150.325 141.583 150.752 141.54 151.605 140.686C157.978 134.286 164.35 127.923 170.722 121.56L170.724 121.558L170.726 121.556C173.913 118.374 177.1 115.191 180.287 112.004C180.842 111.45 181.141 110.98 181.141 110.169ZM181.141 125.492V140.9C181.141 141.545 180.798 141.885 180.436 142.244L180.372 142.308C170.684 151.997 160.952 161.686 151.264 171.332C151.191 171.404 151.09 171.45 150.947 171.514C150.838 171.563 150.704 171.624 150.538 171.716V156.735C150.538 156.047 150.921 155.628 151.324 155.187L151.392 155.113C161.208 145.339 171.025 135.565 181.141 125.492ZM172.813 164.323C169.727 167.353 166.609 170.415 163.385 173.594H179.988C180.714 173.594 181.183 173.508 181.183 172.569V156.094C178.383 158.854 175.611 161.576 172.813 164.323Z" fill="#009E7F"/>
<path d="M58.2182 66.4207C66.4557 74.4448 74.3091 82.1701 82.1625 89.8528C101.711 109.017 121.301 128.181 140.849 147.302C142.941 149.351 142.984 149.351 140.807 151.527C139.398 152.936 137.904 154.259 136.624 155.796C135.642 156.948 135.045 157.033 133.892 155.881C122.496 144.656 111.058 133.473 99.6192 122.291C86.2172 109.187 72.9006 96.0842 59.4987 83.0237C58.5597 82.0847 58.1755 81.1884 58.1755 79.908C58.2609 75.5972 58.2182 71.2437 58.2182 66.4207Z" fill="white"/>
<path d="M58.2182 96.9806C72.0469 110.511 85.4489 123.656 98.8509 136.76C107.899 145.595 116.948 154.472 126.039 163.265C127.319 164.503 127.405 165.185 126.039 166.338C124.204 167.917 122.539 169.667 120.874 171.46C120.021 172.356 119.594 172.527 118.57 171.545C100.131 153.405 81.7356 135.18 63.0412 117.254C59.3706 113.669 57.4499 110.169 58.1328 105.09C58.4742 102.572 58.2182 100.011 58.2182 96.9806Z" fill="white"/>
<path d="M58.2183 127.498C65.8582 134.967 73.1567 142.095 80.4126 149.265C83.1442 151.954 85.8331 154.686 88.5221 157.417C88.5221 162.283 88.5221 167.191 88.5221 172.527C85.2356 169.283 82.2479 166.338 79.2175 163.35C72.6019 156.863 66.029 150.375 59.4133 143.973C58.6024 143.162 58.1756 142.436 58.2183 141.241C58.2609 136.802 58.2183 132.406 58.2183 127.498Z" fill="white"/>
<path d="M72.9007 173.594C68.8459 173.594 64.0229 173.594 59.2426 173.594C58.3463 173.594 58.1756 173.167 58.2182 172.441C58.2182 167.789 58.2182 163.094 58.2182 158.015C63.3827 163.478 68.2484 168.685 72.9007 173.594Z" fill="white"/>
</svg>
