<svg xmlns="http://www.w3.org/2000/svg" xmlns:xlink="http://www.w3.org/1999/xlink" viewBox="0 0 533.37 533.37"><defs><style>.cls-1{fill:url(#linear-gradient);}.cls-2{fill:#fff;}</style><linearGradient id="linear-gradient" y1="266.68" x2="533.37" y2="266.68" gradientUnits="userSpaceOnUse"><stop offset="0" stop-color="#f15f6e"/><stop offset="1" stop-color="#fdc372"/></linearGradient></defs><title>Asset 17</title><g id="Layer_2" data-name="Layer 2"><g id="Layer_1-2" data-name="Layer 1"><circle class="cls-1" cx="266.68" cy="266.68" r="266.68"/><path class="cls-2" d="M294.68,407.32a102.18,102.18,0,0,1,2.89-22.44q2.88-12.66,8.22-32.66,6.21-20.88,9.33-35.55a128,128,0,0,0,3.11-26.21q0-30.22-26.66-30.22A64.23,64.23,0,0,0,276.9,262L241.36,429.54h-64L237.8,146.93,303.57,138,281.79,240.69h3.56q17.32,0,32-12a82.32,82.32,0,0,0,22.88-30q8.22-18,8.22-35.33,0-20.43-12.21-33.55t-36.66-13.11q-36,0-63.1,12.89t-42,37.32q-14.88,24.45-14.88,57.77,0,16.44,3.11,22.88t3.11,7.34q-24,0-35.77-10T138.26,211.8q0-28.43,23.33-55.32t59.77-43.55q36.44-16.67,72.87-16.66,33.33,0,56,9.78T384,132a61.24,61.24,0,0,1,11.11,35.33q0,20.9-12.88,41.77a102.22,102.22,0,0,1-35.11,34.21q16.89,4.91,23.78,16.22t6.88,28.22a130.19,130.19,0,0,1-3.11,27.33q-3.11,14.44-8.88,35.77-3.57,13.78-6.67,27.1T356,400.21a35.47,35.47,0,0,0,4.66,18.22,24.94,24.94,0,0,0,12.67,11.11q-27.1,7.56-44,7.56Q294.68,437.1,294.68,407.32Z"/></g></g></svg>